<?xml version="1.0" standalone="no"?>
<!DOCTYPE svg PUBLIC "-//W3C//DTD SVG 20010904//EN"
 "http://www.w3.org/TR/2001/REC-SVG-20010904/DTD/svg10.dtd">
<svg version="1.0" xmlns="http://www.w3.org/2000/svg"
 width="247.000000pt" height="98.000000pt" viewBox="0 0 247.000000 98.000000"
 preserveAspectRatio="xMidYMid meet">

<g transform="translate(0.000000,98.000000) scale(0.100000,-0.100000)"
fill="#000000" stroke="none">
<path d="M795 730 c-8 -14 3 -30 21 -30 10 0 14 -14 14 -55 l0 -55 -59 0 c-33
0 -71 -4 -86 -10 l-26 -10 3 -137 c3 -135 4 -138 26 -141 13 -2 46 12 80 33
l57 36 5 -33 c5 -30 9 -33 43 -36 31 -3 37 0 37 16 0 11 -9 22 -20 25 -19 5
-20 14 -20 206 l0 201 -34 0 c-19 0 -38 -4 -41 -10z m35 -254 l0 -73 -59 -37
c-32 -20 -62 -36 -65 -36 -3 0 -6 50 -6 110 l0 110 65 0 65 0 0 -74z"/>
<path d="M520 685 c-16 -19 -5 -47 17 -43 22 4 29 43 9 51 -8 3 -20 -1 -26 -8z"/>
<path d="M2220 685 c-16 -19 -5 -47 17 -43 22 4 29 43 9 51 -8 3 -20 -1 -26
-8z"/>
<path d="M150 570 c0 -13 7 -20 19 -20 21 0 26 -11 62 -150 12 -47 27 -91 32
-97 12 -17 56 -17 62 0 2 6 18 65 36 130 26 96 35 117 50 117 12 0 19 7 19 20
0 17 -7 20 -50 20 -43 0 -50 -3 -50 -19 0 -11 5 -21 12 -23 9 -3 5 -32 -16
-106 -16 -56 -31 -102 -35 -102 -3 0 -19 45 -34 101 -27 94 -27 102 -11 113
27 20 7 36 -47 36 -42 0 -49 -3 -49 -20z"/>
<path d="M480 571 c0 -10 9 -21 20 -24 18 -5 20 -14 20 -107 0 -93 -2 -102
-20 -107 -11 -3 -20 -14 -20 -25 0 -17 6 -19 57 -16 58 3 85 24 44 35 -20 5
-21 12 -21 134 l0 129 -40 0 c-33 0 -40 -4 -40 -19z"/>
<path d="M993 580 c-22 -9 -23 -14 -23 -140 l0 -130 26 -10 c33 -13 125 -13
158 0 l26 10 0 130 0 130 -26 10 c-31 12 -131 12 -161 0z m147 -140 l0 -110
-65 0 -65 0 0 110 0 110 65 0 65 0 0 -110z"/>
<path d="M1273 580 c-25 -10 -38 -48 -29 -82 4 -14 34 -41 81 -70 62 -39 75
-52 75 -73 0 -25 -1 -26 -57 -23 -51 3 -58 6 -61 26 -2 12 -10 22 -18 22 -12
0 -14 -10 -12 -42 l3 -43 83 0 c94 0 104 7 100 69 -3 37 -7 42 -78 86 -59 37
-75 52 -75 71 0 22 4 24 58 27 55 3 57 2 57 -23 0 -16 6 -25 15 -25 11 0 15
12 15 45 l0 45 -67 -1 c-38 0 -78 -4 -90 -9z"/>
<path d="M1530 583 c-27 -11 -30 -26 -30 -144 0 -96 3 -119 17 -130 22 -19
167 -19 185 -1 18 18 18 246 0 264 -13 13 -146 22 -172 11z m145 -143 l0 -105
-67 -3 -68 -3 0 111 0 111 68 -3 67 -3 0 -105z"/>
<path d="M1880 556 c0 -37 22 -51 34 -21 4 11 21 15 66 15 56 0 60 -2 60 -23
0 -17 -19 -34 -85 -76 -88 -55 -101 -72 -90 -121 5 -25 12 -30 48 -35 70 -10
200 -2 205 13 2 7 -5 16 -17 19 -20 5 -21 12 -21 117 0 61 -5 118 -10 126 -7
11 -33 16 -100 18 l-90 4 0 -36z m160 -167 l0 -59 -65 0 c-64 0 -65 0 -65 28
0 22 10 33 58 63 31 20 60 34 65 32 4 -2 7 -31 7 -64z"/>
<path d="M2180 571 c0 -14 6 -21 20 -21 19 0 20 -7 20 -110 0 -103 -1 -110
-20 -110 -13 0 -20 -7 -20 -20 0 -18 7 -20 60 -20 53 0 60 2 60 20 0 13 -7 20
-20 20 -18 0 -20 8 -22 128 l-3 127 -37 3 c-33 3 -38 0 -38 -17z"/>
<path d="M1772 341 c-19 -11 -11 -45 11 -49 9 -2 20 4 23 13 9 21 -16 47 -34
36z"/>
</g>
</svg>
